# xmcd CD database file
#
# Track frame offsets:
#	150
#	22280
#	45947
#	68057
#
# Disc length: 1219 seconds
#
# Revision: 0
# Processed by: cddbd v1.5.1PL0 Copyright (c) Steve Scherf et al.
# Submitted via: CDex 1.51
#
DISCID=2d04c104
DTITLE=山下達郎 - FOREVER MINE - MIDAS TOUCH
DYEAR=2005
DGENRE=JPop
TTITLE0=FOREVER MINE
TTITLE1=MIDAS TOUCH
TTITLE2=FOREVER MINE (Original Karaoke)
TTITLE3=MIDAS TOUCH (Original Karaoke)
EXTD=YEAR: 2005
EXTT0=
EXTT1=
EXTT2=
EXTT3=
PLAYORDER=
